/* XPM */
static char * icon14_xpm[] = {
"14 14 94 2",
"  	c None",
". 	c #B9BABC",
"+ 	c #D2D3D4",
"@ 	c #BEBFC1",
"# 	c #CBCCCF",
"$ 	c #E0E3E1",
"% 	c #F6F8F8",
"& 	c #F3F3F3",
"* 	c #B9BABD",
"= 	c #C8C9CB",
"- 	c #DADCDB",
"; 	c #E6E8E7",
"> 	c #F7F7F7",
", 	c #FCFCFC",
"' 	c #F5F5F5",
") 	c #BCBDBF",
"! 	c #D3D5D5",
"~ 	c #E3E5E4",
"{ 	c #F1F2F2",
"] 	c #FDFDFD",
"^ 	c #F8F8F8",
"/ 	c #CBCCCC",
"( 	c #B2B3B6",
"_ 	c #B0B1B3",
": 	c #D3D4D6",
"< 	c #DFE0E0",
"[ 	c #EAEDEB",
"} 	c #FAF9F9",
"| 	c #DFE0DF",
"1 	c #B9BBBD",
"2 	c #C2C3C5",
"3 	c #B7B8BC",
"4 	c #CDCED0",
"5 	c #DCDDDE",
"6 	c #E7E9E7",
"7 	c #F6F6F6",
"8 	c #C0C1C2",
"9 	c #DDDFDF",
"0 	c #BCBCBF",
"a 	c #D7D9DA",
"b 	c #E2E4E3",
"c 	c #F0F2F1",
"d 	c #FAFAFA",
"e 	c #F9F9F9",
"f 	c #CCCDCD",
"g 	c #B6B7B9",
"h 	c #C7C8CA",
"i 	c #A6A7A9",
"j 	c #D3D4D5",
"k 	c #F2F5F3",
"l 	c #F1F2F1",
"m 	c #F6F8F7",
"n 	c #FCFBFC",
"o 	c #E8EAE9",
"p 	c #B6B7B8",
"q 	c #BFC0C2",
"r 	c #323138",
"s 	c #1D1D22",
"t 	c #111117",
"u 	c #4C4C51",
"v 	c #ECECED",
"w 	c #FFFFFF",
"x 	c #BBBDBD",
"y 	c #C9CACB",
"z 	c #333238",
"A 	c #313036",
"B 	c #27272C",
"C 	c #1E1F24",
"D 	c #16171D",
"E 	c #919193",
"F 	c #F2F3F3",
"G 	c #B4B5B7",
"H 	c #CDCFCF",
"I 	c #67666B",
"J 	c #37363C",
"K 	c #2C2B31",
"L 	c #2A292F",
"M 	c #16171C",
"N 	c #68696B",
"O 	c #C7C8C9",
"P 	c #CBCDCC",
"Q 	c #49474E",
"R 	c #39383E",
"S 	c #36353B",
"T 	c #333138",
"U 	c #28272D",
"V 	c #CED0D0",
"W 	c #67676C",
"X 	c #414046",
"Y 	c #424147",
"Z 	c #39383F",
"` 	c #8C8D8F",
" .	c #6B6C70",
"..	c #75757A",
"              . +           ",
"            @ # $ % &       ",
"          * = - ; > , '     ",
"          ) ! ~ { ] ^ / (   ",
"        _ : < [ } , | 1 2   ",
"      3 4 5 6 7 , { 8 . 9   ",
"    2 0 a b c d e f g h     ",
"    i j k l m n o p q h     ",
"  r s t u v w ' x g y       ",
"  z A B C D E F G H         ",
"  I J A K L M N O P         ",
"    Q R R S T U V           ",
"      W X Y X Z `           ",
"             ...            "};
